<?xml version="1.0" encoding="UTF-8"?>
<svg id="Layer_2" data-name="Layer 2" xmlns="http://www.w3.org/2000/svg" xmlns:xlink="http://www.w3.org/1999/xlink" viewBox="0 0 928.73 445.98">
  <defs>
    <linearGradient id="linear-gradient" x1="846.88" y1="210.48" x2="51.03" y2="210.48" gradientUnits="userSpaceOnUse">
      <stop offset="0" stop-color="#fff"/>
      <stop offset="1" stop-color="#f6e9d8"/>
    </linearGradient>
    <linearGradient id="linear-gradient-2" x1="688.57" y1="386.13" x2="307.06" y2="4.62" gradientUnits="userSpaceOnUse">
      <stop offset="0" stop-color="#f79481"/>
      <stop offset="1" stop-color="#e25044"/>
    </linearGradient>
  </defs>
  <g id="Layer_1-2" data-name="Layer 1">
    <g>
      <path d="M790.74,203.49h0s-24.9,3.72-24.9,3.72h0c-17.82-59.9-70.41-116.93-147.54-132.94l-3.36-.85c-4.91-7.09-12.59-14.55-25.9-22.25-6.72-3.89-34.05-13.34-67.46-13.16-69.55.37-140.23,23.83-178.13,38.34l-41.24,8.1h-.06c-10.09.75-20.56,2-31.39,3.9-28.51,5-54.48,13.57-77.65,23.73l-15.13-5.11c-29.58-31.86-80.26-38.71-104.67-23.99-20.05,12.09-30.98,42.5-13.65,63.97,11.62,14.4,33.19,21.38,54.6,17.58-31.63,8.6-50.62,32.41-47.78,54.39,2.15,16.6,16.85,31.98,34.13,35.99,27.27,6.32,48.11-12.91,77.37-55.98l8.75-10.86,61.84,10.38,21.18,7.02-11.64,5.06c-21.03,6.8-32.03,12.94-27.51,27.51,2.98,9.58,22.65,31.51,88.99,6.47l24.03-6.88,45.05,19.85,3.55,1.95c2.42,1.51,4.74,2.98,6.96,4.42,17.79,11.55,36.4,25.34,55.98,39.11h0s-29.05,1.76-29.05,1.76c-73,0-88.8,42.56-67.96,61.9,33.98,31.53,86.46,13.68,128.63-21.62l13.68-12.32-.07-.05c39.93,23.64,83.75,41.19,132.51,37.32l2.36.54,38.29-2,.75-1.3c58.81-12.71,89.37-50.22,96.54-94.51l1.67.77,20.89,2.26h0c22.72,5.39,42.22-.35,51.5-23.51,8.49-21.21-10.55-56-54.17-48.7ZM187.99,186.5h.05s-.03,0-.05,0h0ZM349.51,235.93h0s.07.03.07.03c-.02-.01-.05-.02-.07-.03Z" style="fill: url(#linear-gradient);"/>
      <path d="M622.06,113.57c-3.2,5.59-14.25,2.85-42.88-12.75-32.76-17.86-85.61-5.8-108.4-17.03-22.03-10.85-68.41.81-64.17-7.7,3.37-6.77,72.25-26.61,73.88-26.43,19.01,2.13,17.08,9.53,23.92,5.66,5.94-3.36,18.42,2.69,22.74,1.63,5.12-1.26,6.06,3.88,14.01,3.23,5.96-.49,6.16-10.6,11-10.52,7.38.12,14.85,5.59,22.98,6.2,6.14.46,20.8,5.11,27.9,4.87,6.17-.21,1.43,4.11,15.26,25.27,10.25,15.67,5.34,24.8,3.76,27.57ZM773.74,217.92c-1.93,2.81-1.13,5.18-.54,13.48,1.51,21.17-2.28,25.58,2.16,30.74,5.97,6.95,19.04,6.2,19.96,3.78.89-2.36-9.58-6.66-8.63-10.79.96-4.19,12.25-1.99,16.18-8.63,2.35-3.97,1.49-10.13-1.62-13.48-5.05-5.45-14.76-2.1-15.64-4.85-1.09-3.42,13.8-8.86,12.94-12.4-.9-3.73-19.29-5.86-24.81,2.16ZM404.13,125.94c-8.91-1.52-55.37-9.02-71.56,4.69-5.44,4.61-27,39.01,24.33,60.99,19.14,8.19,18.61,38.63,42.96,48.43,26,10.46,36.06,37.2,52.93,36.02,13.95-.98,42.93-36.02,24.61-49.13-44.95-32.18,13.72-50.8,27-51.88,29.88-2.43,73.83-19.42,66.82-44.9-5.03-18.31-93.3-1.1-115.58-7.03-21.54-5.73-43.66.35-51.52,2.81M657.47,211.39c3.15,15.54-5.86,32.85-15.59,47.55-14.06,21.24-17.63,36.96,2.05,59.45,23.31,26.64,66.01,36.72,79.39,23.08,9.69-9.87,27.94-6.09,37.51-36.76,4.43-14.19,8.35-46.57,11.68-64.67,4.82-26.16-37.68-51.62-37.98-58.52-.94-21.44-20.2-23.46-36.5-29.12-33.35-11.58-64.08,4.19-67.53,14.85-6.57,20.34,23.06,24.96,26.95,44.14ZM443.97,318.74c-9.97-4.04-23.63-3.18-25.89,2.43-1.41,3.49,2,7.83,7.28,14.56,6.81,8.68,10.77,13.72,16.99,13.75,7.82.04,16.63-7.85,16.18-16.18-.48-8.86-11.16-13.19-14.56-14.56ZM177.98,149.97c9.38-1.08,6.14,21.57,30.41,29.66,3.55,1.18,9.7.8,20.45,5.73,9.42,4.31,28.38,7.81,29.37,6.54,3.6-4.62-12.79-8.99-9.64-15.51,4.68-9.71-14.83-28.04-28.85-30.02-4.48-.63-17.52-3.01-11.33-7.2,14.84-10.04,31.23,3.03,42.07-6.47,5.67-4.97,8.17-14.69,4.85-19.42-6.86-9.79-38.39,2.05-50.16,6.47-23.91,8.98-31.81,18.33-33.98,21.03-3.78,4.73-2.79,10.27,6.8,9.17Z" style="fill: url(#linear-gradient-2);"/>
      <path d="M177.98,106.97c-29.58-31.86-80.26-38.71-104.67-23.99-20.05,12.09-30.98,42.5-13.65,63.97,12.86,15.94,37.9,22.78,61.44,15.99" style="fill: none; stroke: #a82f1e; stroke-linecap: round; stroke-linejoin: round; stroke-width: 10px;"/>
      <path d="M121.1,162.94c-35.69,6.83-57.66,32.45-54.61,55.98,2.15,16.6,16.85,31.98,34.13,35.99,27.27,6.32,48.11-12.91,77.37-55.98" style="fill: none; stroke: #a82f1e; stroke-linecap: round; stroke-linejoin: round; stroke-width: 10px;"/>
      <circle cx="600.72" cy="271.91" r="12.94" style="fill: #523925;"/>
      <circle cx="734.54" cy="254.54" r="12.94" style="fill: #523925;"/>
      <path d="M631.63,107.7c-12.35-14.73-4.85-34.71-42.59-56.54-6.72-3.89-34.05-13.34-67.46-13.16-74.73.39-150.76,27.45-186.04,41.42" style="fill: none; stroke: #a82f1e; stroke-linecap: round; stroke-linejoin: round; stroke-width: 10px;"/>
      <path d="M552.16,248.97c-1.98,1.73-5.93,5.66-8.19,12.07-1.99,5.63-1.72,10.53-1.4,13.09" style="fill: none; stroke: #a82f1e; stroke-linecap: round; stroke-linejoin: round; stroke-width: 5px;"/>
      <path d="M534.29,243.81c-1.98,1.73-5.93,5.66-8.19,12.07-1.99,5.63-1.72,10.53-1.4,13.09" style="fill: none; stroke: #a82f1e; stroke-linecap: round; stroke-linejoin: round; stroke-width: 5px;"/>
      <line x1="66.2" y1="113.78" x2="114.5" y2="120.56" style="fill: none; stroke: #a82f1e; stroke-linecap: round; stroke-linejoin: round; stroke-width: 5px;"/>
      <line x1="95.16" y1="89.01" x2="143.77" y2="112.61" style="fill: none; stroke: #a82f1e; stroke-linecap: round; stroke-linejoin: round; stroke-width: 5px;"/>
      <line x1="92.25" y1="238.07" x2="123.42" y2="203.06" style="fill: none; stroke: #a82f1e; stroke-linecap: round; stroke-linejoin: round; stroke-width: 5px;"/>
      <path d="M618.3,74.27c167.8,34.83,219.51,263.84,49.45,294.22" style="fill: none; stroke: #a82f1e; stroke-linecap: round; stroke-linejoin: round; stroke-width: 10px;"/>
      <path d="M426.11,304.71c-73,0-88.8,42.56-67.96,61.9,33.98,31.53,86.46,13.68,128.63-21.62" style="fill: none; stroke: #a82f1e; stroke-linecap: round; stroke-linejoin: round; stroke-width: 10px;"/>
      <path d="M781.9,205.47c49.86-13.87,72.05,24.13,63.01,46.72-10.57,26.4-34.43,30.17-61.18,20.62" style="fill: none; stroke: #a82f1e; stroke-linecap: round; stroke-linejoin: round; stroke-width: 10px;"/>
      <path d="M641.88,369.01c-97.81,12.96-175.98-61.86-242.7-105.17-26.72-17.35-67.6-39.83-124.58-56.63" style="fill: none; stroke: #a82f1e; stroke-linecap: round; stroke-linejoin: round; stroke-width: 10px;"/>
      <path d="M314.75,83.79c-13.87.45-28.57,1.86-43.99,4.56-38.66,6.78-72.69,20.11-101.33,35.1" style="fill: none; stroke: #a82f1e; stroke-linecap: round; stroke-linejoin: round; stroke-width: 10px;"/>
      <path d="M319.6,244.5c-66.34,25.04-86.01,3.11-88.99-6.47-4.53-14.56,6.47-20.7,27.51-27.51" style="fill: none; stroke: #a82f1e; stroke-linecap: round; stroke-linejoin: round; stroke-width: 10px;"/>
      <path d="M730.06,306.66c7.71,18.98-20.97,27.23-51.94,32.86-30.96,5.64-58.55,4.48-60.19-12.45-1.62-16.73,20.97-27.23,51.94-32.86,30.96-5.64,55.19.15,60.19,12.45Z" style="fill: #f79481; stroke: #a82f1e; stroke-linecap: round; stroke-linejoin: round; stroke-width: 10px;"/>
      <line x1="79.78" y1="145.67" x2="122.09" y2="140.82" style="fill: none; stroke: #a82f1e; stroke-linecap: round; stroke-linejoin: round; stroke-width: 5px;"/>
      <line x1="122.09" y1="240.39" x2="146.52" y2="204.32" style="fill: none; stroke: #a82f1e; stroke-linecap: round; stroke-linejoin: round; stroke-width: 5px;"/>
      <line x1="79.78" y1="204.32" x2="114.5" y2="186.93" style="fill: none; stroke: #a82f1e; stroke-linecap: round; stroke-linejoin: round; stroke-width: 5px;"/>
      <line x1="242.09" y1="232.42" x2="274.35" y2="228.07" style="fill: none; stroke: #a82f1e; stroke-linecap: round; stroke-linejoin: round; stroke-width: 5px;"/>
      <line x1="252.8" y1="243.69" x2="285.06" y2="239.34" style="fill: none; stroke: #a82f1e; stroke-linecap: round; stroke-linejoin: round; stroke-width: 5px;"/>
      <line x1="359.73" y1="341.43" x2="391.28" y2="334.14" style="fill: none; stroke: #a82f1e; stroke-linecap: round; stroke-linejoin: round; stroke-width: 5px;"/>
      <line x1="366.43" y1="360.31" x2="397.31" y2="348.49" style="fill: none; stroke: #a82f1e; stroke-linecap: round; stroke-linejoin: round; stroke-width: 5px;"/>
      <line x1="392.03" y1="371.51" x2="418.24" y2="356.81" style="fill: none; stroke: #a82f1e; stroke-linecap: round; stroke-linejoin: round; stroke-width: 5px;"/>
      <line x1="803.95" y1="228.24" x2="824.98" y2="225.61" style="fill: none; stroke: #a82f1e; stroke-linecap: round; stroke-linejoin: round; stroke-width: 5px;"/>
      <line x1="804.77" y1="242.08" x2="828.3" y2="242.49" style="fill: none; stroke: #a82f1e; stroke-linecap: round; stroke-linejoin: round; stroke-width: 5px;"/>
      <line x1="802.62" y1="256.33" x2="823.77" y2="261.55" style="fill: none; stroke: #a82f1e; stroke-linecap: round; stroke-linejoin: round; stroke-width: 5px;"/>
      <line x1="597.45" y1="97.73" x2="586.3" y2="74.27" style="fill: none; stroke: #a82f1e; stroke-linecap: round; stroke-linejoin: round; stroke-width: 5px;"/>
      <line x1="568.99" y1="87.76" x2="557.15" y2="62.84" style="fill: none; stroke: #a82f1e; stroke-linecap: round; stroke-linejoin: round; stroke-width: 5px;"/>
      <line x1="539.84" y1="83.65" x2="527.15" y2="56.95" style="fill: none; stroke: #a82f1e; stroke-linecap: round; stroke-linejoin: round; stroke-width: 5px;"/>
      <line x1="509.84" y1="80.6" x2="498.98" y2="57.73" style="fill: none; stroke: #a82f1e; stroke-linecap: round; stroke-linejoin: round; stroke-width: 5px;"/>
      <line x1="481.66" y1="80.38" x2="473.15" y2="62.45" style="fill: none; stroke: #a82f1e; stroke-linecap: round; stroke-linejoin: round; stroke-width: 5px;"/>
      <line x1="455.84" y1="80.33" x2="448.87" y2="65.65" style="fill: none; stroke: #a82f1e; stroke-linecap: round; stroke-linejoin: round; stroke-width: 5px;"/>
      <line x1="431.55" y1="81.77" x2="426.15" y2="70.4" style="fill: none; stroke: #a82f1e; stroke-linecap: round; stroke-linejoin: round; stroke-width: 5px;"/>
      <line x1="408.84" y1="84.05" x2="404.37" y2="74.65" style="fill: none; stroke: #a82f1e; stroke-linecap: round; stroke-linejoin: round; stroke-width: 5px;"/>
      <line x1="387.06" y1="86" x2="384.36" y2="80.33" style="fill: none; stroke: #a82f1e; stroke-linecap: round; stroke-linejoin: round; stroke-width: 5px;"/>
      <path d="M170.64,185.37c9.58.36,20.2,1.19,31.62,2.8,17.95,2.53,33.49,6.34,46.31,10.28" style="fill: none; stroke: #a82f1e; stroke-linecap: round; stroke-linejoin: round; stroke-width: 10px;"/>
      <line x1="367.05" y1="89.78" x2="364.93" y2="86.09" style="fill: none; stroke: #a82f1e; stroke-linecap: round; stroke-linejoin: round; stroke-width: 5px;"/>
      <path d="M376.99,97.69c32.01-6.95,74.72-12.46,124.62-8.52,40.93,3.23,75.79,11.96,103.12,21.16" style="fill: none; stroke: #a82f1e; stroke-linecap: round; stroke-linejoin: round; stroke-width: 5px;"/>
      <ellipse cx="569" cy="288.85" rx="17.05" ry="11.37" style="fill: #ff9a8d;"/>
      <ellipse cx="772.52" cy="255.81" rx="17.05" ry="11.37" style="fill: #ff9a8d;"/>
      <path d="M649.61,322.48c9.04-.72,20.17-2.09,32.73-4.68,11.06-2.29,20.66-5,28.54-7.57" style="fill: none; stroke: #a82f1e; stroke-linecap: round; stroke-linejoin: round; stroke-width: 5px;"/>
    </g>
    <g>
      <path d="M188.27,339.31l-39.81,20.64,17.28-26.39c-13.49-2.59-28.22-4.01-43.66-4.01-64.67,0-117.09,25-117.09,55.84,0,27.4,41.39,50.19,95.98,54.93l28.34-43.05,3.5,43.72c59.64-2.58,106.36-26.49,106.36-55.6,0-19.13-20.17-36-50.91-46.07Z" style="fill: #80a65f; stroke: #30560a; stroke-linecap: round; stroke-linejoin: round; stroke-width: 10px;"/>
      <line x1="126.75" y1="373.13" x2="65.45" y2="340.97" style="fill: none; stroke: #30560a; stroke-linecap: round; stroke-linejoin: round; stroke-width: 5px;"/>
      <line x1="147.62" y1="379.77" x2="235.93" y2="395.36" style="fill: none; stroke: #30560a; stroke-linecap: round; stroke-linejoin: round; stroke-width: 5px;"/>
      <line x1="169.37" y1="436.47" x2="149.52" y2="396.85" style="fill: none; stroke: #30560a; stroke-linecap: round; stroke-linejoin: round; stroke-width: 5px;"/>
      <line x1="28.13" y1="412.8" x2="111.31" y2="387.73" style="fill: none; stroke: #30560a; stroke-linecap: round; stroke-linejoin: round; stroke-width: 5px;"/>
      <line x1="13.59" y1="364.36" x2="62.57" y2="370.49" style="fill: none; stroke: #30560a; stroke-linecap: round; stroke-linejoin: round; stroke-width: 5px;"/>
    </g>
    <g>
      <path d="M863.67,49.65l45.38,23.72c9.3-6.87,14.68-15,14.68-23.72,0-24.66-43.07-44.65-96.2-44.65-4.93,0-9.77.17-14.49.5l14.49,21.97-43.09-17.75c-31.5,7.34-53.12,22.46-53.12,39.93,0,24.66,43.07,44.65,96.2,44.65,24.2,0,46.31-4.15,63.21-10.99l-27.08-33.66Z" style="fill: #80a65f; stroke: #30560a; stroke-linecap: round; stroke-linejoin: round; stroke-width: 10px;"/>
      <line x1="827.53" y1="94.31" x2="841.72" y2="52.93" style="fill: none; stroke: #30560a; stroke-linecap: round; stroke-linejoin: round; stroke-width: 5px;"/>
      <line x1="749.81" y1="75.97" x2="824.91" y2="46.93" style="fill: none; stroke: #30560a; stroke-linecap: round; stroke-linejoin: round; stroke-width: 5px;"/>
      <line x1="744.03" y1="27.47" x2="811.08" y2="39.34" style="fill: none; stroke: #30560a; stroke-linecap: round; stroke-linejoin: round; stroke-width: 5px;"/>
      <line x1="902.8" y1="21.85" x2="863.67" y2="32.41" style="fill: none; stroke: #30560a; stroke-linecap: round; stroke-linejoin: round; stroke-width: 5px;"/>
    </g>
  </g>
</svg>